<svg xmlns="http://www.w3.org/2000/svg" xmlns:xlink="http://www.w3.org/1999/xlink" viewBox="0 0 500 500" xmlns:v="https://vecta.io/nano"><style><![CDATA[.B{stroke-linejoin:round}.C{stroke:#263238}.D{fill:#fff}.E{fill:#04bfbf}.F{fill:#263238}.G{stroke-linecap:round}]]></style><use xlink:href="#B" class="E"/><use xlink:href="#B" opacity=".7" class="D"/><g class="E"><path d="M119.27 313.61h-22a.5.5 0 0 1-.5-.5v-33.7h-6.53a.49.49 0 0 1-.45-.28.51.51 0 0 1 0-.53l18-22.72a.51.51 0 0 1 .78 0l18 22.72a.5.5 0 0 1-.39.81h-6.56v33.7a.5.5 0 0 1-.35.5zm-21.48-1h21v-33.7a.5.5 0 0 1 .5-.5h6l-17-21.41-17 21.41h6a.5.5 0 0 1 .5.5zm242.32 1h-22a.5.5 0 0 1-.5-.5v-33.7h-6.56a.5.5 0 0 1-.39-.81l18.05-22.72a.51.51 0 0 1 .78 0l18.05 22.72a.5.5 0 0 1-.39.81h-6.56v33.7a.5.5 0 0 1-.48.5zm-21.48-1h21v-33.7a.5.5 0 0 1 .5-.5h6l-17-21.41-17 21.41h6a.5.5 0 0 1 .5.5zm77.2 56.95h-22a.5.5 0 0 1-.5-.5v-33.7h-6.53a.5.5 0 0 1-.39-.81l18-22.71a.51.51 0 0 1 .78 0l18 22.71a.5.5 0 0 1-.39.81h-6.56v33.7a.5.5 0 0 1-.41.5zm-21.47-1h21v-33.7a.5.5 0 0 1 .5-.5h6l-17-21.41-17 21.41h6a.51.51 0 0 1 .5.5zM373 238.88h-22a.5.5 0 0 1-.5-.5v-33.7h-6.56a.49.49 0 0 1-.45-.29.51.51 0 0 1 .06-.53l18-22.71a.52.52 0 0 1 .79 0l18 22.71a.51.51 0 0 1-.39.82h-6.56v33.7a.5.5 0 0 1-.39.5zm-21.47-1h21v-33.7a.5.5 0 0 1 .5-.5h6l-17-21.42-17 21.42h6a.5.5 0 0 1 .5.5zm-186.37 4.93h-22a.5.5 0 0 1-.5-.5v-33.7h-6.55a.5.5 0 0 1-.4-.81l18.05-22.72a.51.51 0 0 1 .78 0l18.05 22.72a.5.5 0 0 1-.39.81h-6.56v33.7a.5.5 0 0 1-.48.5zm-21.48-1h21v-33.7a.5.5 0 0 1 .5-.5h6l-17-21.41-17 21.41h6a.5.5 0 0 1 .5.5zm56.48 127.75h-22a.5.5 0 0 1-.5-.5v-33.7h-6.56a.5.5 0 0 1-.39-.81l18.05-22.71a.51.51 0 0 1 .78 0l18.05 22.71a.5.5 0 0 1-.4.81h-6.55v33.7a.5.5 0 0 1-.48.5zm-21.48-1h21v-33.7a.5.5 0 0 1 .5-.5h6l-17-21.41-17 21.41h6a.5.5 0 0 1 .5.5z"/><ellipse cx="254" cy="418.83" rx="102" ry="11.83"/></g><ellipse cx="254" cy="418.83" rx="102" ry="11.83" opacity=".5" class="D"/><g class="B C"><path d="M319.27 134.91a37.65 37.65 0 0 0-57.94-38.24A50.8 50.8 0 0 0 163.55 116v1.87a33.07 33.07 0 0 0 4.52 64.56v.35h149.58a24 24 0 0 0 1.62-47.86z" class="F"/><path d="M319.27 130.41a37.65 37.65 0 0 0-57.94-38.24 50.8 50.8 0 0 0-97.78 19.32v1.87a33.07 33.07 0 0 0 4.52 64.56v.35h149.58a24 24 0 0 0 1.62-47.86z" class="E"/><path d="M267.4,264.46l-6.29,3.3s-6.89,3-11.39,5.39-26.67,19.48-26.67,19.48l-4.49.3-2.7,1.8s-4.5.9-4.5,1.8.9,1.19,1.8,1.19a17.74,17.74,0,0,0,3.9-1.49s-3.05,4.46-1.85,4.46a46.7,46.7,0,0,1,5.17.83,58.66,58.66,0,0,1,6-.8c1.5,0,5.09-8.09,5.09-8.09s25.77-10.19,29.07-12.59,12.88-8.39,12.88-8.39Z" class="D"/><path d="M291.59 239.84l-28.09 25.52 8.1 9.59 15.58-5.99 5.39-28.77-.98-.35z" class="E"/><path d="M267.25 261.96l-3.75 3.4 8.1 9.59 4.83-1.86-9.18-11.13z" class="F"/><path d="M340.62 399.53s8.92 9.28 9.83 13.83-1.27 8.56-4.91 7.46-6.92-12.37-7.83-14.37-2-4.19-2-4.19 2.73-3.64 4.91-2.73z" class="E"/><g class="D"><path d="M350.53 413.85c.66 4.34-1.49 8-5 7-1.27-.37-2.49-2-3.58-4 2.38-3.85 6.21-3.64 8.58-3z"/><path d="M340.71 414.22c2 2.73 4.54 5.66 6.46 5.15s2.93-4.12 3.28-6c.9 4.54-1.28 8.52-4.91 7.43-1.78-.51-3.46-3.46-4.83-6.58z"/><g stroke-width=".5"><path d="M338.8 404.63s4-2.19 4.19-1.46-3.82 2.73-4.37 2.73-.91-.18.18-1.27z"/><path d="M339.71 405.9s4-2.18 4.19-1.45-3.82 2.73-4.37 2.73-.91-.18.18-1.28z"/><path d="M340.62 407.18s4-2.19 4.19-1.46-3.82 2.73-4.37 2.73-.91-.18.18-1.27z"/><path d="M341.53 408.45s4-2.18 4.19-1.46-3.82 2.73-4.37 2.73-.91-.18.18-1.27z"/></g></g><path d="M268.75,407.88s3.48,4.85,3.79,7.6-2,2.82-4.94,2.51-6.45,1.86-10.59,1.75-8.93-1.92-6.63-3.89,8.3-3.59,9.6-4.72a22.53,22.53,0,0,0,2.18-2.19Z" class="E"/><g class="D"><path d="M250.38 415.85a11.87 11.87 0 0 1 2.64-1.57 8.8 8.8 0 0 1 4.34 5.46H257c-4.14-.11-8.92-1.92-6.62-3.89z"/><g stroke-width=".5"><path d="M260.36 410.49s4.27 2.23 3.19 2.67-4.32-2.06-3.19-2.67zm-1.66.45s4.27 2.23 3.19 2.67-4.32-2.06-3.19-2.67z"/><path d="M257.74 411.6s4.27 2.23 3.19 2.67-4.32-2.06-3.19-2.67zm-1.74.8s4.27 2.23 3.19 2.67-4.34-2.07-3.19-2.67z"/></g><path d="M249.9 416.46a13.36 13.36 0 0 0 9.93 1.47 61.29 61.29 0 0 1 9.52-1.32 11.86 11.86 0 0 0 3.21-.54c-.08 2.17-2.24 2.21-5 1.92-2.94-.32-6.45 1.86-10.59 1.75-3.68-.1-7.88-1.56-7.07-3.28z"/></g><path d="M312.48 301s-2.1 29.24-.83 36.33 4.4 28.2 4.4 28.2 4.74 3.46 9.47 11.1 15.1 22.93 15.1 22.93.37 2.73-2.91 3.64c0 0-1.64.73-2.55 0s-32-29.48-35.67-35.48-8.55-42.92-8.55-42.92l-4.73-.91-20 38.22 3.48 46.46s.27 1.6-2 2.25-4.1.88-5.46-.29-11.89-52.05-11-53.87 21.07-51.84 21.07-51.84l1.63-4.18s19.11 2.18 27.66.54 10.17-2.94 10.89-.18z" class="F"/></g><path d="M286.21 323.86l-10.38-3.09m9.28 3.64l-14.19-1.64m38.3-16.11s-7.68 4.9 0 8.17m-21.74-6.17l-1.18 4.72-3.16 3.16 3.94 3.54" fill="none" stroke="#fff" class="G B"/><g class="C B"><path d="M332.47 252.72l-15.69-12.54-25.19-.34-9.5 30.32s-8.73 30.2-8.37 31.48 6.56 4.18 20.39 5.82 19.65-4.18 20-6a15.08 15.08 0 0 0-.36-4.92l4.73-8.37 15.65-25.74a7.49 7.49 0 0 0-1.66-9.71z" class="E"/><path d="M327 248.29l-10.19-8.11-12.59-.24c-1.64 3.74-4.47 11.38-2.14 15.16 2.84 4.66 12.23 6.05 24.92-6.81z" class="F"/><path d="M318.67 209s-5.27 1.46-7.46 4.73-8.55 22.39-8.37 24 8.37 0 8.37 0-5.64 11.83-5.64 13.83 2.55 3.1 5.82 2.37S325.83 234 325.83 234s3.31 3.84 5.4 2.52c2.4-1.51 1.64-4.55-.18-4.55s5.09-7.46 2.73-12.37-12.92-12.23-15.11-10.6z" class="D"/><path d="M316.67 203.19s-10.19 0-10.74 4.91 4.74 7.1 10.56 6.19 11.1-.55 11.83.36-7.1 2.73-5.28 4a5.88 5.88 0 0 0 3.64 1.1s-2.55.72-2.37 2.54 1.77 9.86 3 9.86 3.7-.16 3.7-.16a23 23 0 0 0 6.19-4.55c2.73-2.91 3.45-9.1 0-12.73s-6.19-7.16-8.92-10.07-5.28-6-10.74-6.73-8.33 1.45-.87 5.28z" class="F"/></g><g fill="none" class="G B"><path d="M337.92 222a11.53 11.53 0 0 1 .11 3.23m-18.81-16.3s-11.17 1.09-7 3.22 10.68-1.86 18.81 1.36a10.43 10.43 0 0 1 6.11 5.86M326 217.41s7.63 3.73 8.64 9.15" stroke="#fff"/><path d="M311.21 237.76s8.74-.54 11.1-2.54m-13.83-4.74s6.37 1.82 8.19-2m-1.09-.73l2.73 1.1" class="C"/></g><path d="M310.48,222.11s-5.64.73-5.64,1.64,3.64,3.46,3.64,3.46" class="B C D G"/><g class="F"><path d="M311.2 220.36c-.26.79-.79 1.32-1.19 1.19s-.5-.87-.23-1.66.79-1.32 1.19-1.19.5.88.23 1.66zm4.8 2.43c-.27.79-.8 1.32-1.19 1.19s-.5-.88-.24-1.66.8-1.32 1.19-1.19.49.87.24 1.66z"/><path d="M316.25 217.62s2.76.25 2.5 4zm-2.5-1.75s-1.51-2-3.51.75zm-50.22-66.56l-26.34-33.15-26.33 33.15h10.3v49.91h32.07v-49.91h10.3z" class="B C"/></g><g class="D B C"><path d="M263.53 147.16l-26.34-33.15-26.33 33.15h10.3v49.91h32.07v-49.91h10.3z"/><path d="M181.45 191.44h107.11v107.11H181.45z"/></g><path d="M186.43 196.42h97.15v97.15h-97.15z" class="B C F"/><g class="D B C"><path d="M261.05 229.13l-22.66 23.68-17.64-4.94a6 6 0 0 0-5.13.92L186.43 270v23.61h97.15v-50l-13.9-14.49a6 6 0 0 0-8.63.01z"/><circle cx="222.46" cy="222.57" r="12.26" transform="matrix(.379779 -.925077 .925077 .379779 -67.93 343.82)"/><path d="M319.09 257.35l-26.77 27.52-40.8 11.24s-3.64-4.23-6.26-4.26-11.06 3-11.06 3-1.07 2.62 1 2.64a36.81 36.81 0 0 0 6.31-1l-11.57 2h0a3.77 3.77 0 0 0 3.69 3.18h5.21l8.91 1.13 8.43-2.55 42.05-4.86c2.11-.51 36-29.6 36-29.6s3.83-3.37 2.37-7.28-8.93-6.68-8.93-6.68" class="G"/></g><path d="M314.26,260.22l-20.41,20.47L309,291.62l26.32-24.79a7.71,7.71,0,0,0,1.35-9.58l-.09-.14a19.42,19.42,0,0,0-7.72-7" class="B C E G"/><path d="M309.04 291.62l3.56-3.36-15.23-11.1-3.52 3.53 15.19 10.93z" class="B C F"/><g class="D B C"><path d="M211.36 296.53l3.85 4.16 3.73.41-5.79-4.96-1.79.39zm7.24 0l3.85 4.16 3.72.41-5.79-4.96-1.78.39z"/><path d="M218.94 301.1l-4.35-5.58h2.69l5.38 5.58-2.28.42-1.44-.42zm-9.1-4.13l1.86 3.51 3.51.21-3.85-4.16-1.52.44z"/></g><defs ><path id="B" d="M368.44 167.79C327.25 123.86 264.79 98 205.81 118.61c-49.06 17.12-89.63 59.53-111.69 106.79C78.6 258.66 70 301.75 79.45 338c8.2 31.44 34.4 45.42 64.36 47.66 47.38 3.55 94.93-1.59 142.34-.68 33.65.64 85 13.09 115-6.89 28.35-18.88 26.58-60 23.47-90.17-4.62-45.01-25.9-87.82-56.18-120.13z"/></defs></svg>